<?xml version="1.0" encoding="UTF-8" standalone="no"?>
<!-- Created with Inkscape (http://www.inkscape.org/) -->

<svg
   width="156.37375mm"
   height="50.098175mm"
   viewBox="0 0 156.37375 50.098175"
   version="1.1"
   id="svg1"
   sodipodi:docname="logo.svg"
   inkscape:version="1.3 (0e150ed6c4, 2023-07-21)"
   xmlns:inkscape="http://www.inkscape.org/namespaces/inkscape"
   xmlns:sodipodi="http://sodipodi.sourceforge.net/DTD/sodipodi-0.dtd"
   xmlns="http://www.w3.org/2000/svg"
   xmlns:svg="http://www.w3.org/2000/svg">
  <sodipodi:namedview
     id="namedview1"
     pagecolor="#ffffff"
     bordercolor="#000000"
     borderopacity="0.25"
     inkscape:showpageshadow="2"
     inkscape:pageopacity="0.0"
     inkscape:pagecheckerboard="0"
     inkscape:deskcolor="#d1d1d1"
     inkscape:document-units="mm"
     inkscape:export-bgcolor="#ffffff00"
     inkscape:zoom="0.72426347"
     inkscape:cx="272.69082"
     inkscape:cy="356.91432"
     inkscape:window-width="1920"
     inkscape:window-height="1009"
     inkscape:window-x="1912"
     inkscape:window-y="-8"
     inkscape:window-maximized="1"
     inkscape:current-layer="g1" />
  <defs
     id="defs1" />
  <g
     inkscape:label="Layer 1"
     inkscape:groupmode="layer"
     id="layer1"
     transform="translate(-3.6245893,-11.762253)">
    <g
       id="g1"
       transform="matrix(0.50000001,0,0,0.50000001,-25.150672,5.9056749)"
       style="stroke:#ffffff"
       inkscape:export-filename="logo.png"
       inkscape:export-xdpi="541.32941"
       inkscape:export-ydpi="541.32941">
      <path
         d="m 104.78156,11.81135 c 0.90337,0 1.80676,0.196386 2.63158,0.569521 l 36.97957,15.69128 c 4.3205,1.826394 7.54124,6.087981 7.5216,11.233307 -0.0982,19.481539 -8.11076,55.125688 -41.94815,71.327572 -3.27965,1.57109 -7.08955,1.57109 -10.369206,0 C 65.759565,94.431146 57.746996,58.786997 57.648804,39.305458 c -0.01967,-5.145326 3.201101,-9.406913 7.521601,-11.233307 l 36.999215,-15.69128 c 0.80518,-0.373135 1.70856,-0.569521 2.61194,-0.569521 z"
         id="path1-3"
         style="stroke:#ffffff;stroke-width:0.196386"
         inkscape:export-filename="logo.jpg"
         inkscape:export-xdpi="541.32941"
         inkscape:export-ydpi="541.32941" />
      <path
         d="m 117.02721,41.167547 c 0.57616,-1.337843 0.14649,-2.900287 -1.03511,-3.759633 -1.18161,-0.859344 -2.79288,-0.781221 -3.89636,0.175776 L 87.096634,59.457916 c -0.976526,0.859344 -1.328077,2.236249 -0.869107,3.447143 0.458963,1.210895 1.630802,2.031179 2.929575,2.031179 H 100.0454 l -7.509504,17.518907 c -0.57615,1.337852 -0.14648,2.900294 1.03512,3.759641 1.18159,0.85934 2.79286,0.781221 3.89634,-0.175779 L 122.46647,64.164781 c 0.97654,-0.859345 1.32809,-2.23625 0.86912,-3.447144 -0.45897,-1.210895 -1.62104,-2.021413 -2.92959,-2.021413 h -10.88828 z"
         id="path1"
         style="fill:#ffffff;stroke:#00ffff;stroke-width:0.5;stroke-dasharray:none" />
    </g>
    <g
       id="g2"
       transform="translate(0,2.1413482)">
      <text
         xml:space="preserve"
         style="font-style:normal;font-variant:normal;font-weight:normal;font-stretch:normal;font-size:19.7556px;font-family:monos;-inkscape-font-specification:monos;text-align:center;text-anchor:middle;fill:#241f1c;stroke:#241f1c;stroke-width:0.892"
         x="105.42984"
         y="34.614311"
         id="text1"><tspan
           sodipodi:role="line"
           id="tspan1"
           style="font-style:normal;font-variant:normal;font-weight:normal;font-stretch:normal;font-family:Monospace;-inkscape-font-specification:Monospace;fill:#241f1c;stroke:#241f1c;stroke-width:0.892"
           x="105.42984"
           y="34.614311">LIGHTYEAR</tspan></text>
      <text
         xml:space="preserve"
         style="font-style:normal;font-variant:normal;font-weight:normal;font-stretch:normal;font-size:9.87777px;font-family:monos;-inkscape-font-specification:monos;text-align:center;text-anchor:middle;fill:#241f1c;stroke:#241f1c;stroke-width:0.25;stroke-dasharray:none"
         x="106.16778"
         y="46.496838"
         id="text2"><tspan
           sodipodi:role="line"
           id="tspan2"
           style="font-style:normal;font-variant:normal;font-weight:normal;font-stretch:normal;font-family:'Roboto Condensed';-inkscape-font-specification:'Roboto Condensed, ';stroke-width:0.25"
           x="106.16778"
           y="46.496838">SOFTWARE SOLUTIONS Inc.</tspan></text>
    </g>
  </g>
</svg>
