<?xml version="1.0" standalone="no"?>
<!DOCTYPE svg PUBLIC "-//W3C//DTD SVG 20010904//EN"
 "http://www.w3.org/TR/2001/REC-SVG-20010904/DTD/svg10.dtd">
<svg version="1.0" xmlns="http://www.w3.org/2000/svg"
 width="756.000000pt" height="756.000000pt" viewBox="0 0 756.000000 756.000000"
 preserveAspectRatio="xMidYMid meet">
<metadata>
Created by potrace 1.14, written by Peter Selinger 2001-2017
</metadata>
<g transform="translate(0.000000,756.000000) scale(0.100000,-0.100000)"
fill="#000000" stroke="none">
<path d="M3665 7545 c-44 -12 -74 -24 -200 -80 -103 -46 -200 -85 -212 -85 -7
0 -13 -4 -13 -10 0 -5 -6 -10 -13 -10 -12 0 -261 -103 -365 -150 -23 -11 -49
-20 -56 -20 -7 0 -19 -7 -26 -15 -7 -8 -23 -15 -36 -15 -13 0 -24 -4 -24 -10
0 -5 -7 -10 -16 -10 -9 0 -28 -6 -42 -14 -44 -23 -149 -66 -161 -66 -6 0 -11
-4 -11 -8 0 -4 -10 -8 -22 -9 -11 -1 -25 -8 -29 -15 -5 -7 -9 -9 -9 -5 0 5
-12 2 -27 -6 -25 -13 -80 -38 -93 -42 -33 -10 -376 -159 -384 -166 -6 -5 -16
-9 -24 -9 -7 0 -32 -9 -55 -19 -48 -22 -191 -83 -377 -161 -69 -29 -149 -64
-179 -77 -30 -14 -59 -26 -65 -27 -6 -1 -27 -9 -46 -18 -80 -36 -132 -59 -274
-118 -212 -88 -305 -144 -410 -245 -59 -57 -146 -177 -176 -242 -12 -26 -26
-56 -31 -67 -15 -26 -49 -137 -48 -150 1 -6 -2 -20 -7 -31 -10 -23 -11 -408
-1 -535 4 -47 9 -110 12 -140 2 -30 7 -77 10 -105 3 -27 8 -72 11 -100 3 -27
7 -66 10 -85 3 -19 7 -49 9 -67 2 -17 8 -57 14 -90 5 -32 12 -74 15 -93 8 -50
15 -87 28 -150 6 -30 12 -64 14 -75 3 -26 38 -185 64 -289 22 -89 21 -85 45
-171 9 -33 20 -73 25 -90 22 -80 96 -316 110 -350 8 -20 106 -279 138 -365 9
-25 20 -47 23 -50 4 -3 10 -16 14 -30 25 -80 262 -553 316 -632 11 -14 19 -29
19 -32 0 -11 204 -330 227 -354 7 -7 13 -18 13 -23 0 -5 8 -17 18 -27 9 -10
24 -29 32 -41 23 -35 160 -215 168 -221 4 -3 19 -21 33 -40 15 -19 37 -46 49
-60 12 -14 47 -54 78 -90 71 -83 368 -380 447 -447 33 -29 71 -61 85 -73 14
-12 45 -39 70 -59 25 -20 47 -38 50 -41 3 -3 23 -18 45 -35 22 -16 42 -32 45
-35 8 -10 168 -123 260 -184 47 -31 90 -60 97 -66 7 -5 15 -10 19 -10 4 0 22
-11 41 -26 18 -14 33 -22 33 -18 0 4 10 -1 23 -12 12 -11 33 -26 47 -32 14 -7
52 -28 85 -47 107 -62 348 -181 410 -203 114 -38 143 -43 287 -47 72 -1 140 3
175 11 32 7 69 15 83 18 58 10 295 121 442 207 36 21 71 39 77 39 6 0 11 5 11
10 0 6 4 10 10 10 5 0 43 21 85 48 41 26 83 52 93 57 10 6 32 20 49 33 17 12
36 22 42 22 6 0 11 3 11 8 0 4 28 25 63 47 34 22 68 46 76 53 8 7 26 21 40 30
14 9 33 22 41 29 8 6 62 49 120 95 58 45 110 87 116 93 6 5 42 37 80 70 88 76
394 382 459 458 28 33 59 69 70 81 51 55 209 260 290 376 33 47 63 86 67 88 4
2 8 8 8 13 0 5 17 35 38 67 55 81 98 151 123 197 12 22 24 42 28 45 6 5 13 18
98 175 85 158 204 408 263 555 12 30 26 64 31 75 26 60 101 263 102 278 1 9 5
17 9 17 4 0 8 11 8 23 0 13 3 27 7 30 11 11 51 146 45 152 -3 3 -1 5 5 5 5 0
10 6 10 13 0 6 10 44 22 82 11 39 24 82 27 95 6 31 9 41 17 60 9 22 37 139 43
180 3 19 8 38 11 42 4 8 8 23 19 78 3 13 12 56 20 95 8 38 17 86 20 105 3 19
7 37 9 40 2 3 6 26 10 50 3 25 10 68 15 95 5 28 12 70 15 95 3 25 7 52 9 60 3
8 7 42 11 75 3 33 8 78 11 100 6 45 10 91 19 185 3 36 8 90 11 120 8 89 14
503 7 514 -4 5 -7 19 -8 30 -9 104 -94 307 -160 383 -5 6 -21 26 -35 44 -25
33 -35 43 -107 109 -84 78 -157 121 -343 199 -69 29 -138 59 -155 67 -81 36
-221 96 -230 98 -5 1 -26 9 -45 18 -19 8 -64 28 -100 43 -36 15 -83 35 -105
45 -42 18 -77 32 -85 35 -3 1 -23 9 -45 19 -22 10 -78 34 -125 53 -47 19 -105
44 -130 55 -65 28 -102 44 -130 56 -14 5 -41 17 -60 25 -54 23 -301 128 -337
144 -18 7 -35 13 -38 13 -3 0 -32 13 -65 30 -33 17 -60 28 -60 25 0 -2 -16 4
-35 15 -20 11 -40 20 -45 20 -5 0 -33 11 -62 24 -29 13 -98 43 -153 66 -55 23
-118 50 -140 60 -22 10 -69 30 -105 44 -68 28 -73 30 -155 66 -27 12 -59 25
-70 30 -11 4 -42 18 -68 29 -191 85 -249 103 -341 106 -55 2 -111 -2 -141 -10z"/>
</g>
</svg>
